<svg version="1.2" xmlns="http://www.w3.org/2000/svg" viewBox="0 0 422 157" width="422" height="157"><style>.a{fill:#fff;stroke:#000;paint-order:stroke fill markers;stroke-linejoin:round;stroke-width:4}</style><path class="a" d="m126.1 110.3q0-1 1.3-1.2 1.4-0.4 2.2-0.4 0.2 0 0.3 0.2l0.3 0.1h0.2q0.3 0 0.5 0 0.2-0.1 0.4-0.1 0.3 0 0.4 0 0.1-0.2 0.3-0.2 0.7 0 1.6 0.8 0.9 0.7 0.9 1.4v1.5q0 0.4-0.2 0.6-0.1 0.1-0.1 0.3-0.1 0.1-0.1 0.4-0.5 1-0.9 1.8-0.2 0.6-0.3 1.1-0.1 0.4-0.3 1-0.5 0.8-1 1.5-0.6 0.7-1.7 0.7-1.4 0-1.4-1.1 0-0.6 0-1.3 0-0.6 0.3-1.2 0.3-1.2 0.3-2.4 0-0.7-0.6-1.2-0.5-0.4-1.2-0.4-0.1 0-0.2 0 0-0.1-0.1-0.1l-0.1-0.1h-0.1q-0.4 0-0.6-0.7-0.1-0.8-0.1-1z"/><path fill-rule="evenodd" class="a" d="m13.3 108.8q0.2-0.4 0.2-0.8 0.2-0.9 0.3-1.8 0.1-1.1 0.1-2.1l0.2-4.5 0.1-0.1 0.1-0.2q0.1-0.3 0.1-0.3h0.4l0.3 1h0.2q1.1 0.7 1.3 0.9 0.2 0.3 0.2 0.5 0 0.7 0.1 1.1l0.1 0.7 0.4-0.6q0.6-1 0.8-1.9 0.3-1.1 0.5-2.1 0.2-1 0.4-2.1 0.1-1 0.3-2 0.5-2.5 0.7-5 0.4-2.6 0.7-5.2 0.3-2.1 0.3-4.2 0-2.1 0.2-4.3 0.4-4.9 0.5-9.6 0.1-4.9 0.1-9.8 0-4.1 0.4-8.2 0.4-4.2 0.4-8.3l-0.4-0.1q-0.5 2.7-0.9 5.3-0.2 2.6-0.8 5.4-0.5 2-0.7 4-0.2 1.9-0.5 3.9l-0.8 5.8q0 0.2-0.1 0.3 0 0.1 0 0.4 0 0.1-0.2 0.2 0 0 0 0.2-0.7 0-0.7-0.9-0.1-1.8 0-3.6 0.3-1.8 0.4-3.5 0.1-2.3 0.1-4.4 0-2.3 0.1-4.6l0.4-8.7q0.1-1.9 0.5-3.6 0.3-1.8 0.3-3.7 0-0.6-0.1-1.1 0-0.5 0-1.1 0-2.6 2-2.6 1.4 0 2.8 0.6 1.3 0.6 2.6 1.3 0.8 0.5 1.5 0.8 0.7 0.4 1.6 0.6 0.8 0.3 2.4 0.6 1.5 0.3 2.1 0.6 1.2 0.7 1.2 2.1 0 0.5-0.4 1.3-1.5 3.1-2.6 7.3-1.1 4.3-1.8 8.8-0.6 4.6-0.9 9-0.3 4.4-0.3 7.8v0.5l0.4-0.2q1.7-1.1 4.5-3.7 3-2.8 6-5.9 3.1-3.1 5.7-6 2.6-3 3.8-4.8l-0.4-0.2q-0.3 0.3-1 0.7-0.2 0-0.6 0.2-0.3 0.3-0.6 0.3 0-0.2 0.7-1.5 0.7-1.3 1.6-2.8 1-1.7 1.8-3 0.9-1.4 1-1.7 0.2-0.2 0.2-0.2l0.3-0.2q0.2-0.3 0.6-0.3 0.8 0 1.9 1.5 1.1 1.3 2.1 3 1.1 1.8 1.8 3.6 0.7 1.8 0.7 2.6 0 0.4-0.6 0.9-0.5 0.4-1 0.7-1.5 0.6-4.6 3-3.1 2.3-6.3 5.1-3.1 2.7-5.5 5.2-2.2 2.4-2.2 3.2v0.1l0.6 0.9q0.8 0.3 2.5 2.2 1.6 1.9 3.4 4.4 1.8 2.4 3.2 4.8 1.5 2.4 1.7 3.5-0.5-0.4-0.8-0.8-0.4-0.4-0.8-0.9l-1.1-1.4 0.8 1.6q0.5 1 1.3 2.3 0.9 1.2 1.9 2.5 1 1.4 2 2.6 1.1 1.2 1.7 2.1 0.5 0.6 0.8 1.1 0.4 0.5 0.7 1.1 4.2 6.1 8.8 10.5 4.7 4.2 10.2 7 5.4 2.6 11.9 3.9 6.4 1.2 13.9 1.2 1.2 0 3.1-0.4 1.9-0.3 2.8-1.2 0.1 0 0.5-0.3 0-0.1 0.4-0.1-0.4 0.7-0.8 1-0.2 0.4-0.9 0.9-1.7 1-4.3 1.3-2.6 0.2-4.7 0.2-3.9 0-7.2-0.6-3.3-0.6-7-1.9l-1-0.3 0.8 0.7q0.2 0.2 0.4 0.3 0.3 0.3 0.5 0.4l0.4 0.4q0.1 0.1 0.1 0.2h-0.3q-0.2 0.2-1.1 0.3-1 0-1.4 0h-0.2q-0.1-0.1-0.1-0.1l-0.1-0.1h-0.2q-3.8 0-8.9-2.5-5-2.6-10-6.2-5-3.7-9.3-7.7-4.2-4.1-6.6-7-1.2-1.6-2.6-3.5-1.3-1.9-2.9-3.9-1.5-2-3.1-3.8-1.4-1.8-3-2.8l-0.3-0.2c0 0.1 0 0.7 0 0.8q0.1 0 0.1 0.3 0.2 0.2 0.4 0.5 0.3 0.3 0.3 0.7-0.3-0.4-1.3-1.1-0.9-0.7-2-1.4-1.1-0.7-2-1.2-0.9-0.6-1.1-0.6-0.5 0-0.7 0.3-0.3 0.4-0.5 0.8-0.2 0.4-0.4 0.9 0 0.4-0.1 0.6-0.2 0.8-0.3 2.7 0 1.8 0 3.8v6.8q0 4.3 0.3 8.7 0.4 4.3 1.6 8.5 0.3 1.4 0.3 2.7 0 0.7-1 1-1 0.2-1.6 0.2-1.5-0.1-3.2-0.5-1.7-0.5-3.3-1.1-1.7-0.5-3.4-1.1-1.6-0.8-3.1-1.2-0.1 0-0.1 0 0-0.2-0.1-0.2-0.1 0-0.1 0 0-0.1-0.1-0.1-0.2-0.1-0.4-0.1-0.1-0.2-0.1-0.2 0-0.3-0.1-0.3 0-0.1 0-0.2-0.3-0.5-0.3-0.6 0-0.2 0-0.4 0.1-0.1 0.1-0.3zm54.9-37q0.4-0.3 1.3-1h0.1v-0.1q0.2-0.4 0.3-0.7 0.1-0.4 0.2-0.7 0.1-0.4 0.2-0.7 0.2-0.4 0.2-0.8 0.6-0.4 1.6-0.5 1.2-0.2 2.1-0.2 0.9 0 1.6 0.5 0.9 0.4 1 1.2l0.2 0.2q0.3 0.2 0.6 0.8 0.5 0.5 0.8 1.3 0.4 0.6 0.6 1.3 0.3 0.6 0.3 0.9 0 1.6-0.6 3.7-0.6 2-1.1 4.1-0.5 1.9-0.7 3.9-0.1 1.2-0.1 2.2 0 1.1-0.1 2.2-0.3 2.4-0.6 4.9-0.3 2.5-0.3 5.1 0 0.2 0.1 0.3 0 0.5 0.2 0.5v0.5l0.3-0.4q1-0.9 1.7-1.9 0.8-1 1.8-2 0.9-1.1 1.6-2.3 0.7-1.1 1.7-2.3 0.2-0.3 0.5-0.3h0.1q-0.5 2.3-2 5.1-0.7 1.4-1.6 2.5-0.7 1.1-1.3 2.2-0.6 1.1-1.5 2.5-1 1.3-1.6 2.2-0.2 0.5-1 0.6-0.9 0.2-1.5 0.2-0.7 0-1.2-0.9-0.3-0.7-0.7-2.7-0.2-2-0.5-4.3-0.1-2.4-0.2-4.5-0.1-2.2-0.1-3.2-0.1-2-0.5-4.1-0.2-2-0.5-4h-0.4q0 0.2 0 0.9 0 0.6-0.2 1.5 0 0.7-0.1 1.4-0.1 0.6-0.2 0.7l-0.1 0.1v0.1q-0.5-0.2-0.9-1.9-0.3-1.7-0.6-3.9-0.2-2.1-0.3-4 0-2.1 0-2.8 0-1 0.2-1.9 0.3-0.9 1.2-1.5zm13.9-44.2q0-0.3 0.3-1.3 0.2-0.9 0.4-2.1 0.3-1.2 0.5-2.2 0.4-0.9 0.5-1.3 0.1-0.2 0-0.6 0-0.3 0.1-0.7 0.3-0.9 0.4-1.2 0.2-0.9 0.7-1.2 0.6-0.2 1.5-0.2 0.3 0.1 0.7 0.1 1.1 0 2.1-0.5 0.4-0.2 0.8-0.4 0.5-0.3 1.1-0.5 1-0.6 2.1-1 1.2-0.4 2.6-0.4 1.7 0 2.7 0.8 0.9 0.7 1.4 1.9 0.5 1.1 0.6 2.5 0.1 1.4 0.1 2.7 0 3.5-0.6 7.1-0.6 3.4-1.1 6.9-0.3 3.1-0.8 6-0.4 3-0.8 6.1-0.2 0.6-0.3 1.4-0.1 0.7-0.3 1.5-0.3 0.9-0.4 1.7 0 0.8 0 1.7 0.6 1.2 0.6 2.4 0 0.3-0.4 0.8-0.3 0.4-0.7 0.4-0.8 0-1-1.2-0.2-1.2-0.2-1.8 0-4.2 0.2-8.2 0.2-4.2 0.2-8.3v-0.2l-0.4-0.4q0-0.6-0.1-0.9v-0.4q-0.1-0.2-0.1-0.4 0-1 0.1-1.6 0.3-0.9 0.1-1.4l-0.7-4.7-0.1 1.9q-0.2 4.2-0.9 8.5-0.6 4.3-1.2 8.6-0.4 2.4-0.6 4.4-0.1 1.9-0.3 3.8-0.1 1.8-0.1 3.8 0 1.9 0 4.3 0 3.8-0.2 7.7-0.3 3.8-0.3 7.7 0 1.6 0.2 5.3 0.1 3.6 0.4 7.5 0.4 3.9 1 7.4 0.7 3.3 1.8 4.4 0.6 0.6 0.8 0.6h0.1v-0.1q1.9-1.9 3.6-4 1.8-2 3.7-3.9 0.5-0.5 0.9-1.2 0.6-0.8 1.1-1.6 0.5-1 1.2-1.6l0.2 0.1q0 1.1-0.9 3-0.8 1.8-2.2 3.8-1.1 2-2.3 3.8-1.2 1.8-1.9 2.8-0.5 0.8-0.8 1.9-0.2 1-1 2.9-0.9 1.9-1.5 2.8-0.6 0.7-2.1 0.7-0.7 0-1.5-0.4-0.8-0.3-1.6-0.9-0.8-0.6-1.5-1.3-0.6-0.7-1-1.3-0.9-1.6-1.4-3.5-0.5-2-0.5-3.7 0-1.1 0-2 0.1-1.1 0.1-2.1 0-11.8 1.1-23.4 0.4-3.8 0.4-7.5 0.1-3.8 0.2-7.6 0.1-2.5 0.2-4.9 0.3-2.5 0.4-5v-12.2q0-0.5-0.1-1 0-0.4 0-0.9v-0.1h-0.2q-0.7-0.6-1.3-1-0.6-0.5-1.2-0.9-1.9-1.6-2.2-2.8-0.4-1.2-0.4-3.7zm24.3 44.2q0.4-0.3 1.3-1h0.1v-0.1q0.2-0.4 0.3-0.7 0.1-0.4 0.2-0.7 0.1-0.4 0.2-0.7 0.2-0.4 0.2-0.8 0.6-0.4 1.6-0.5 1.2-0.2 2.1-0.2 0.9 0 1.6 0.5 0.9 0.4 1 1.2l0.2 0.2q0.3 0.2 0.6 0.8 0.5 0.5 0.8 1.3 0.4 0.6 0.6 1.3 0.3 0.6 0.3 0.9 0 1.6-0.6 3.7-0.6 2-1.1 4.1-0.5 1.9-0.7 3.9-0.1 1.2-0.1 2.2 0 1.1-0.1 2.2-0.3 2.4-0.6 4.9-0.3 2.5-0.3 5.1 0 0.2 0.1 0.3 0 0.5 0.2 0.5v0.5l0.3-0.4q1-0.9 1.7-1.9 0.8-1 1.8-2 0.9-1.1 1.6-2.3 0.3-0.4 0.6-0.9 0 0 0 0 0-5 1.9-9.3 2.1-4.3 5.5-7.7l-0.2-0.4q-0.3 0.3-0.9 0.6-0.6 0.4-1.2 0.8-0.5 0.5-1.1 0.9-0.6 0.2-0.9 0.2-0.1 0-0.1-0.2 0-0.4 0.7-1.1 0.7-0.8 1.6-1.7 0.9-0.9 1.8-1.6 0.8-0.7 1.1-1 1.7-1 3.3-2.1 1.6-1.1 3.3-2 0.5-0.3 1.1-0.4 0.7-0.2 1.3-0.2 1.6 0.1 3.8 1 2.1 0.9 2.9 2.5 0.8 1.5 1.2 3.5 0.6 2 0.6 3.6 0 0.4-0.1 1 0 0.5-0.1 1.1-0.1 0.6-0.4 1.4-0.1 0.9-0.4 1.6-0.3 0.7-0.9 1.3-0.4 0.5-1.3 0.5-0.8 0-0.9-0.9-0.2-0.8-0.2-1.4v-1.2h-0.1l-0.2-0.1q-0.1 0-0.2 0 0-0.1-0.2-0.1 0 0-0.7-0.3-2.4 0-5.1 1.2-2.6 1.1-4.9 3-2.1 1.8-3.7 4.2-1.4 2.3-1.4 5 0 2 1.6 3.9 1.6 1.9 3.9 2 1.4 0.1 2.8 0.1 1.6-0.1 3-0.1 0.1 0.1 0.3 0.1 0 0.1 0.2 0.1 0.2 0 0.7 0 0.5-0.1 1.1-0.1h1q0.3 0 0.6-0.1 0.9-0.2 1.2-0.2 0.4-0.1 1.3-0.1 0.3 0 0.3 0.1-1 0.9-2.5 1.4-1.6 0.5-3.2 0.7-1.7 0.3-3.4 0.3-1.6 0-2.6 0.1l-2.2 0.1 2.1 0.3 1.8 0.4q1.2 0.2 1.8 0.2 2.2 0 5.1-1.1 2.8-1.2 5.6-2.9 2.8-1.7 5.3-3.5 2.6-1.9 4.3-3.3 0.1 0 0.1 0 0.2-0.1 0.4-0.1l0.1 0.1v0.4q0 0.3-0.1 0.3-1.6 2.2-4.3 4.6-2.6 2.2-5.7 4.1-3.1 1.8-6.3 3.1-3.1 1.2-5.6 1.2-6 0-9.8-3.9-3-3.1-3.6-7.4-0.2 0.4-0.5 0.9-0.7 1.4-1.6 2.5-0.7 1.1-1.3 2.2-0.6 1.1-1.5 2.5-1 1.3-1.6 2.2-0.2 0.5-1 0.6-0.9 0.2-1.5 0.2-0.7 0-1.2-0.9-0.3-0.7-0.7-2.7-0.2-2-0.5-4.3-0.1-2.4-0.2-4.5-0.1-2.2-0.1-3.2-0.1-2-0.5-4.1-0.2-2-0.5-4h-0.4q0 0.2 0 0.9 0 0.6-0.2 1.5 0 0.7-0.1 1.4-0.1 0.6-0.2 0.7l-0.1 0.1v0.1q-0.5-0.2-0.9-1.9-0.3-1.7-0.6-3.9-0.2-2.1-0.3-4 0-2.1 0-2.8 0-1 0.2-1.9 0.3-0.9 1.2-1.5zm47.5-44.2q0-0.3 0.2-1.3 0.3-0.9 0.5-2.1 0.2-1.2 0.5-2.2 0.3-0.9 0.5-1.3 0.1-0.2 0-0.6 0-0.3 0.1-0.7 0.2-0.9 0.3-1.2 0.3-0.9 0.7-1.2 0.6-0.2 1.6-0.2 0.2 0.1 0.7 0.1 1.1 0 2-0.5 0.5-0.2 0.9-0.4 0.4-0.3 1-0.5 1.1-0.6 2.2-1 1.2-0.4 2.6-0.4 1.7 0 2.6 0.8 1 0.7 1.4 1.9 0.5 1.1 0.6 2.5 0.2 1.4 0.2 2.7 0 3.5-0.6 7.1-0.6 3.4-1.1 6.9-0.4 3.1-0.8 6-0.4 3-0.9 6.1-0.1 0.6-0.2 1.4-0.1 0.7-0.4 1.5-0.2 0.9-0.3 1.7 0 0.7 0 1.7 0.6 1.2 0.6 2.4 0 0.3-0.4 0.8-0.4 0.4-0.7 0.4-0.8 0-1.1-1.2-0.1-1.2-0.1-1.8 0-4.2 0.1-8.2 0.3-4.2 0.3-8.3v-0.2l-0.4-0.4q0-0.6-0.1-0.9v-0.4q-0.1-0.2-0.1-0.4 0-1 0.1-1.6 0.2-0.9 0.1-1.4l-0.7-4.7-0.1 1.9q-0.3 4.2-1 8.5-0.6 4.3-1.2 8.6-0.3 2.4-0.6 4.4-0.1 1.9-0.2 3.8-0.1 1.8-0.1 3.8 0 1.9 0 4.3 0 3.8-0.3 7.7-0.2 3.8-0.2 7.7 0 1.6 0.1 5.3 0.1 3.6 0.5 7.5 0.4 3.9 0.9 7.4 0.8 3.3 1.8 4.4 0.6 0.6 0.9 0.6h0.1v-0.1q1.9-1.9 3.6-4 1.7-2 3.6-3.9 0.5-0.5 1-1.2 0.6-0.8 1.1-1.6 0.4-1 1.2-1.6l0.2 0.1q0 1.1-1 3-0.8 1.8-2.1 3.8-1.2 2-2.4 3.8-1.2 1.8-1.9 2.8-0.5 0.8-0.7 1.9-0.2 1-1.1 2.9-0.8 1.9-1.4 2.8-0.6 0.7-2.1 0.7-0.8 0-1.6-0.4-0.7-0.3-1.5-0.9-0.9-0.6-1.6-1.3-0.6-0.7-0.9-1.3-1-1.6-1.5-3.5-0.4-2-0.4-3.7 0-1.1 0-2 0.1-1.1 0.1-2.1 0-11.8 1.1-23.4 0.3-3.8 0.3-7.5 0.1-3.8 0.2-7.6 0.2-2.5 0.3-4.9 0.2-2.5 0.3-5v-12.2q0-0.5-0.1-1 0-0.4 0-0.9v-0.1h-0.1q-0.7-0.6-1.3-1-0.6-0.5-1.2-0.9-1.9-1.6-2.3-2.8-0.3-1.2-0.3-3.7zm24.3 44.2q0.3-0.3 1.3-1h0.1v-0.1q0.1-0.4 0.2-0.7 0.1-0.4 0.3-0.7 0.1-0.4 0.2-0.7 0.1-0.4 0.1-0.8 0.6-0.4 1.7-0.5 1.2-0.2 2-0.2 1 0 1.7 0.5 0.8 0.4 0.9 1.2l0.3 0.2q0.2 0.2 0.6 0.8 0.4 0.5 0.8 1.3 0.4 0.6 0.6 1.3 0.2 0.6 0.2 0.9 0 1.6-0.6 3.7-0.6 2-1 4.1-0.5 1.9-0.7 3.9-0.2 1.2-0.2 2.2 0 1.1-0.1 2.2-0.2 2.4-0.6 4.9-0.2 2.5-0.2 5.1 0 0.2 0.1 0.3 0 0.5 0.1 0.5v0.5l0.4-0.4q0.9-0.9 1.6-1.9 0.9-1 1.8-2 1-1.1 1.7-2.3 0.7-1.1 1.7-2.3 0.2-0.3 0.4-0.3h0.2q-0.5 2.3-2.1 5.1-0.7 1.4-1.5 2.5-0.7 1.1-1.3 2.2-0.6 1.1-1.6 2.5-0.9 1.3-1.5 2.2-0.3 0.5-1.1 0.6-0.8 0.2-1.4 0.2-0.7 0-1.2-0.9-0.4-0.7-0.7-2.7-0.3-2-0.5-4.3-0.1-2.4-0.2-4.5-0.2-2.2-0.2-3.2-0.1-2.1-0.4-4.1-0.3-2-0.5-4h-0.5q0 0.2 0 0.9 0 0.6-0.1 1.5 0 0.7-0.1 1.4-0.1 0.6-0.3 0.7l-0.1 0.1v0.1q-0.5-0.2-0.8-1.9-0.4-1.7-0.6-3.9-0.2-2.1-0.4-4 0-2.1 0-2.8 0-1 0.3-1.9 0.2-0.9 1.2-1.5zm38.3 37q0.1-0.4 0.1-0.8 0.2-0.9 0.4-1.8 0.1-1.1 0.1-2.1l0.1-4.5 0.1-0.1 0.1-0.2q0.2-0.3 0.2-0.3h0.3l0.4 1h0.1q1.2 0.7 1.3 0.9 0.2 0.3 0.2 0.5 0 0.7 0.2 1.1l0.1 0.7 0.3-0.6q0.6-1 0.9-1.9 0.2-1.1 0.4-2.1 0.3-1 0.4-2.1 0.1-1 0.4-2 0.4-2.5 0.7-5 0.3-2.6 0.7-5.2 0.2-2.1 0.2-4.2 0-2.1 0.3-4.3 0.3-4.9 0.4-9.6 0.1-4.9 0.1-9.8 0-4.1 0.4-8.2 0.5-4.2 0.5-8.3l-0.5-0.1q-0.5 2.7-0.8 5.3-0.3 2.6-0.9 5.4-0.4 2-0.7 4-0.2 1.9-0.4 3.9l-0.9 5.8q0 0.2-0.1 0.3 0 0.1 0 0.4 0 0.1-0.1 0.2 0 0 0 0.2-0.7 0-0.7-0.9-0.2-1.8 0-3.6 0.2-1.8 0.3-3.5 0.1-2.3 0.1-4.4 0-2.3 0.2-4.6l0.3-8.7q0.1-1.9 0.5-3.6 0.4-1.8 0.4-3.7 0-0.6-0.2-1.1 0-0.5 0-1.1 0-2.6 2.1-2.6 1.4 0 2.7 0.6 1.3 0.6 2.6 1.3 0.8 0.5 1.6 0.8 0.7 0.4 1.5 0.6 0.8 0.3 2.4 0.6 1.5 0.3 2.1 0.6 1.2 0.7 1.2 2.1 0 0.5-0.3 1.3-1.6 3.1-2.7 7.3-1 4.3-1.7 8.8-0.6 4.6-1 9-0.2 4.4-0.2 7.8v0.5l0.3-0.2q1.7-1.1 4.5-3.7 3-2.8 6-5.9 3.1-3.1 5.7-6 2.6-3 3.8-4.8l-0.3-0.2q-0.4 0.3-1.1 0.7-0.1 0-0.6 0.2-0.2 0.3-0.6 0.3 0-0.2 0.7-1.5 0.7-1.3 1.7-2.8 0.9-1.7 1.8-3 0.8-1.4 0.9-1.7 0.3-0.2 0.3-0.2l0.2-0.2q0.2-0.3 0.6-0.3 0.8 0 1.9 1.5 1.2 1.3 2.1 3 1.1 1.8 1.8 3.6 0.7 1.8 0.7 2.6 0 0.4-0.6 0.9-0.4 0.4-0.9 0.7-1.6 0.6-4.7 3-3.1 2.3-6.3 5.1-3.1 2.7-5.4 5.2-2.3 2.4-2.3 3.2v0.1l0.6 0.9q0.8 0.3 2.5 2.2 1.7 1.9 3.4 4.4 1.8 2.4 3.3 4.8 1.4 2.4 1.6 3.5-0.5-0.4-0.8-0.8-0.4-0.4-0.7-0.9l-1.2-1.4 0.8 1.6q0.5 1 1.3 2.3 1 1.2 1.9 2.5 1 1.4 2.1 2.6 1 1.2 1.6 2.1 0.5 0.6 0.9 1.1 0.3 0.5 0.7 1.1 4.1 6.1 8.8 10.5 4.6 4.2 10.1 7 5.5 2.6 11.9 3.9 6.4 1.2 13.9 1.2 1.2 0 3.1-0.4 1.9-0.3 2.9-1.2 0.1 0 0.4-0.3 0-0.1 0.4-0.1-0.4 0.7-0.7 1-0.3 0.4-1 0.9-1.6 1-4.3 1.3-2.6 0.2-4.7 0.2-3.8 0-7.2-0.6-3.3-0.6-7-1.9l-0.9-0.3 0.7 0.7q0.2 0.2 0.5 0.3 0.2 0.3 0.4 0.4l0.4 0.4q0.1 0.1 0.1 0.2h-0.2q-0.3 0.2-1.2 0.3-1 0-1.3 0h-0.3q-0.1-0.1-0.1-0.1l-0.1-0.1h-0.1q-3.8 0-8.9-2.5-5-2.6-10-6.2-5-3.7-9.3-7.7-4.3-4.1-6.7-7-1.2-1.6-2.6-3.5-1.3-1.9-2.9-3.9-1.5-2-3.1-3.8-1.4-1.8-2.9-2.8l-0.4-0.2c0 0.1 0 0.7 0 0.8q0.1 0 0.1 0.3 0.3 0.2 0.4 0.5 0.3 0.3 0.3 0.7-0.3-0.4-1.3-1.1-0.9-0.7-2-1.4-1.1-0.7-2-1.2-0.8-0.6-1.1-0.6-0.5 0-0.7 0.3-0.2 0.4-0.5 0.8-0.2 0.4-0.3 0.9 0 0.4-0.1 0.6-0.3 0.8-0.4 2.7 0 1.8 0 3.8v6.8q0 4.3 0.4 8.7 0.3 4.3 1.5 8.5 0.4 1.4 0.4 2.7 0 0.7-1.1 1-1 0.2-1.6 0.2-1.5-0.1-3.2-0.5-1.6-0.5-3.3-1.1-1.7-0.6-3.3-1.1-1.7-0.8-3.1-1.2-0.1 0-0.1 0 0-0.2-0.2-0.2-0.1 0-0.1 0 0-0.1-0.1-0.1-0.1-0.1-0.4-0.1-0.1-0.2-0.1-0.2 0-0.3-0.1-0.3 0-0.1 0-0.2-0.2-0.5-0.2-0.6 0-0.2 0-0.4 0.1-0.1 0.1-0.3zm55.1-22.9q1.6-3.4 3.2-6.6 1.7-3.4 2.7-5.5l0.4-0.7-0.7 0.5q-0.4 0.2-1.1 0.9-0.7 0.7-1.4 1.7-0.7 0.8-1.3 1.6-0.6 0.9-1 1.5-0.1 0.1-0.2 0.1-0.4 0-0.4-0.5 0-1.1 1-3.1 1-2 2.5-4 1.4-2 2.9-3.5 1.7-1.5 2.8-1.5 3.1 0 6.3 1.6 3.2 1.6 5.1 3.9 1.2 1.4 1.4 2.3 0.3 1 0.3 2.6v0.3l-0.1 0.1v0.2h0.1q0.8 0.6 1.8 0.8 1 0.1 2 0.1 0.8 0 1.6 0.6 1 0.4 1.9 2.2 0.2 0.4 0.4 0.6 0.1 0.3 0.1 0.4 0.1 0.1 0.1 0.3v0.9q0 0.6-0.6 1.9-0.5 1.3-0.8 1.9-0.6 1.2-0.8 2.8-0.3 1.7-0.3 3l-0.2 0.5q-0.6 0-0.7-0.1-0.1-0.1-0.4-0.4v-0.3q-0.1-0.2-0.1-0.4-0.1-0.2-0.1-0.4 0-0.2-0.2-0.4l-0.4-0.5-0.1 0.6q-0.3 0.7-0.4 1.4 0 0.7-0.1 1.4-0.1 0.9-0.2 1.7-0.2 0.7-0.2 1.4 0 0.3 0.2 0.3l0.1 0.7q0.1 0.3 0.1 0.7 0 0.2 0.1 0.4v0.1h0.3q0.3 0 1.6-1.3 1.5-1.3 3-3 1.6-1.8 2.9-3.3 1.4-1.7 1.7-2.2l0.5-0.2v0.5q0 0.1-0.1 0.2 0 0 0 0.1-0.1 0.3-0.2 0.5-0.2 0.2-0.3 0.5-0.2 0.6-0.6 0.9-0.2 0.4-0.2 0.5-0.2 0.2-1 1.4-0.7 1.2-1.5 2.5-0.8 1.3-1.6 2.5-0.5 1.1-0.8 1.6-0.6 1.3-1.1 2.6-0.4 1.3-1.1 2.5-0.4 0.5-0.6 0.5 0 0-0.5 0-2.2 0-3.5-1.7-1.2-1.7-2-3.3-1.1-2.1-1.5-4.2-0.4-2.3-0.4-4.6 0-1.2 0.1-2.3 0.1-1.2 0.1-2.5v-0.7l-0.4 0.6q-1.7 2-3.2 4.3-1.5 2.1-3 4.4-1.7 2.3-3.2 4.5-1.6 2-3.6 4.2-0.7 0.8-1.4 1.1-0.6 0.4-1.7 0.4-1.3 0-2.5-1-1.1-0.9-1.9-2.2-0.7-1.4-1.2-2.9-0.3-1.5-0.3-2.7 0-2.4 1-5.6 1.2-3.2 2.9-6.7zm2.8 14.7v0.6l0.4-0.4q1.2-1.2 3.4-3.8 2.3-2.6 4.6-5.5 2.3-2.9 4.1-5.7 1.8-2.8 2.2-4.4l0.4-2.5-0.5-1.1h-0.2q-1.3 0.3-2.6 1.2-1.3 1-2.5 2.2-1.2 1.2-2.2 2.5-1 1.3-1.7 2.4l0.3 0.2q0.3-0.2 1.1-0.6 1-0.5 1.6-0.6-0.6 1.2-1.3 1.9-0.4 0.6-1.6 2.6-1.2 2-2.4 4.3-1.2 2.3-2.1 4.3-1 1.9-1 2.4zm27.2-29.1v-1.5q0-1.2 1.3-2 1.4-1 2.6-1 0.8 0 1.5 0.4 0.4 0.2 0.8 0.4 0.3 0.2 0.7 0.4h0.2q0.6-0.2 1.2-0.2 0.7-0.2 1.5-0.2 0.3 0.2 0.3 0.2h0.2q0.5-0.2 1.2-0.2 1.3-0.1 2.9 1.1 1.6 1.2 2.3 2.2h0.2q0.2 0.2 0.2 0.6 0.1 0.3 0.1 0.9l-0.1 0.2v1q-0.1 0.2-0.1 0.4 0 0-0.3 0.2l-0.1 0.1q-0.1 0.6-0.2 1.1-0.1 0.3-0.4 0.8-0.3 1.1-0.3 2.2-0.1 2.7 0.3 5.3 0.6 2.5 0.6 5 0 3.9 1.2 7.5 0.1 0.2 0.3 0.5 0.1 0.2 0.2 0.5l0.1 0.3 0.2-0.2q0.3-0.3 0.6-1.1 0.5-0.8 0.9-1.7 0.5-0.9 0.8-1.7 0.5-1 0.6-1.5 3-7.3 5.5-14.6 2.5-7.4 2.5-15.6 0-2.4-1.2-5.1-1.1-2.8-3.2-3.8-0.4-0.3-0.4-0.7 0-0.4 0.6-0.4 0.6 0 1.4 0.6 0.9 0.5 1.4 1 2.7 2.7 3.2 6.7 0.4 4.1 0.4 7.8 0 0.9-0.6 3.5-0.2 1.2-0.4 2.3-0.3 1.1-0.4 1.8-0.6 4.7-1.3 9.5-0.7 4.8-1.7 9.4-0.2 1-0.4 1.9-0.2 0.8-0.4 1.8-0.6 2-0.6 3.7 0 0.9 0.2 1.8 0.3 0.7 0.3 1.6 0 1.3-1.1 2.4-0.9 1.1-2.2 1.1-0.6 0-1.4-0.5-0.7-0.5-1.5-1.1-0.5-0.2-0.8-0.6-0.4-0.3-0.9-0.5-0.8-0.6-1.8-0.8h-0.1l-0.1 0.2q-0.3 0.3-0.5 0.6-0.2 0.3-0.7 0.8-0.3 0.5-0.9 0.5-0.7 0-1.2-1-0.5-0.9-0.9-2.1-0.3-1.2-0.6-2.4-0.2-1.3-0.3-1.8-0.1-0.6-0.4-1.1-0.2-0.6-0.3-1.2l-0.6-3.1q-0.3-0.9-0.6-3.5-0.3-2.6-0.8-5.4-0.6-2.7-1.6-5-0.8-2.4-2.1-2.4h-0.4l0.1 0.3q0.1 0.1 0.3 0.9 0.1 0.7 0.2 1.7 0.2 0.8 0.4 1.7 0.1 0.7 0.1 0.9 0 0.3-0.3 0.4-0.6-0.6-1.5-2.2-0.8-1.6-1.8-3.5-0.8-1.9-1.5-3.7-0.6-1.8-0.6-2.8zm30 53.9q0.1-0.2 0.3-0.4l0.1-0.2q0.3 0.3 0.4 0.6 0.8 0.9 1.5 1.7 0.7 0.8 1.6 1.8 0.8 0.9 1.5 1.9 0.7 0.8 1.7 1.7 1.7 1.6 3.7 2.8 2 1.1 4.6 1.1 3 0 5-2.6 2-2.8 3.2-6.3 1.3-3.7 1.8-7.4 0.6-3.7 0.6-5.8 0-0.9-0.1-3.5 0-2.7-0.4-5.6-0.3-2.8-0.9-5-0.6-2.2-1.7-2.2-0.7 0-1.3 0.4-0.6 0.5-1.2 1.1-0.6 0.6-0.9 1.3-0.4 0.7-0.7 1.1-1 0.9-1.8 2.1-0.9 1.1-1.9 1.8-0.2 0.1-0.3 0.2-0.1 0-0.3 0.3-0.1 0.1-0.3 0.1-0.1 0-0.2 0.1-1.3 0-1.9-0.1-0.6-0.1-1.6-0.9v-0.3h-0.1q-0.2-0.1-0.3-0.2 0-0.1-0.3-0.4-0.2-0.2-0.3-0.3 0-0.2-0.3-0.3-1.4-0.7-2.2-1.9-0.7-1.2-1-2.7-0.2-1.6-0.2-3.2 0-1.7 0-3.2 0-2.7 0.5-5.8 0.4-3.2 1.3-6.4 0.9-3.2 2.2-6.2 1.3-2.9 2.9-5.1 0.3-0.6 0.6-1.1 0.3-0.4 0.6-0.9 0.2-0.5 0.3-0.6 0.2-0.1 0.3-0.2 0.3-1 0.3-1.9 0-2.4 1.7-3.4 1.7-1 3.9-1 2.3 0 4.3 1 2 1 3.7 2.6 1.7 1.6 3 3.6 1.3 1.9 2.2 3.8v0.1h0.2q2.3 0 4.2 1 1.9 0.9 1.9 3.6 0 0.3-0.1 0.4 0 0.3-0.1 0.4 0 0.1 0 0.2-0.6 1.5-1.2 2.9-0.5 1.3-1.1 2.6-0.7 1.9-1.2 3.9-0.4 2.1-0.9 4.1-0.1 0.6-0.5 1.6-0.2 1.1-0.5 2.4-0.2 1.3-0.5 2.4-0.3 1.1-0.3 1.6 0 0.2 0.1 0.5 0.2 0.3 0 0.5-0.1 0.3-0.1 0.4 0 0.1-0.1 0.3h-0.5q-0.6 0-0.8-1.3-0.1-1.3-0.1-1.6v-2.5q0-1.1 0.2-2.3l1-5.2-0.6 0.7q-1 1.2-1.6 2.8-0.5 1.7-0.8 3.5-0.3 1.8-0.4 3.7 0 1.8 0 3.2 0 4.4 0.5 8.8 0.5 4.4 1 8.8l0.4-0.1q0.3-2.3 0.5-4.4 0.4-2.2 0.7-4.4 0.3-1.2 0.1-2.3 0-1.2 0.4-2.2 0.1-0.3 0.1-0.8 0-0.6 0.3-1.2 0.1-0.2 0.1-0.4 0-0.3 0.1-0.5 0.2-0.2 0.2-0.2 0 0.1 0 0.7 0.1 0.4 0.3 1.2 0.1 0.6 0.1 1.3 0 0.6 0 0.8 0 7.4-0.5 14.8-0.3 7.3-0.9 14.7-0.4 4.1-2.3 6.8-1.9 2.7-6.4 2.7-0.6 0-1.3-0.2-0.8-0.2-1.5-0.5-0.3-0.1-0.7-0.2-0.2-0.1-0.6-0.3-0.9-0.2-2.1-0.2-1.1-0.1-2-0.1-1.9 0-3.3-0.6-1.3-0.6-2.7-1.8-1.3-1.1-3.1-3-1.8-2-3.4-4.2-1.7-2.3-2.9-4.6-1.1-2.2-1.1-3.9 0-0.2 0.2-0.4zm10.8-24.6h0.1q1.4 0 2.7-1.1 1.3-1 2.2-1.9 1.8-1.7 3.7-4.6 2-2.9 3.7-6.1 1.7-3.3 2.8-6.5 1.2-3.4 1.2-5.8 0-0.9-0.6-1-0.5-0.2-1.1-0.2-2.3-0.2-3.9 1.7-1.5 1.9-2.6 3.7-0.4 0.6-0.7 1.2-0.4 0.6-0.7 1.1-0.2 0-0.2 0.1 0 0-0.1 0l-0.1 0.1h-0.1q-0.8 0-0.8-0.7v-2.5l-0.4 0.7q-2 4-4 9.1-2.1 5.1-2.1 9.6 0 0.7 0.2 1.7 0.2 0.8 0.8 1.4zm31.5-14.9q1.7-3.4 3.2-6.6 1.7-3.4 2.8-5.5l0.3-0.7-0.7 0.5q-0.3 0.2-1.1 0.9-0.7 0.7-1.4 1.7-0.7 0.8-1.3 1.6-0.6 0.9-0.9 1.5-0.2 0.1-0.3 0.1-0.3 0-0.3-0.5 0-1.1 0.9-3.1 1.1-2 2.5-4 1.4-2 3-3.5 1.6-1.5 2.7-1.5 3.1 0 6.3 1.6 3.2 1.6 5.1 3.9 1.2 1.4 1.5 2.3 0.2 1 0.2 2.6v0.3l-0.1 0.1v0.2h0.1q0.8 0.6 1.8 0.8 1.1 0.1 2 0.1 0.9 0 1.7 0.6 0.9 0.4 1.9 2.2 0.1 0.4 0.3 0.6 0.2 0.3 0.2 0.4 0.1 0.1 0.1 0.3v0.9q0 0.6-0.6 1.9-0.6 1.3-0.8 1.9-0.6 1.2-0.9 2.8-0.2 1.7-0.2 3l-0.3 0.5q-0.5 0-0.7-0.1-0.1-0.1-0.3-0.4v-0.3q-0.1-0.2-0.1-0.4-0.2-0.2-0.2-0.4 0-0.2-0.2-0.4l-0.4-0.5-0.1 0.6q-0.2 0.7-0.3 1.4 0 0.7-0.2 1.4-0.1 0.9-0.2 1.7-0.1 0.7-0.1 1.4 0 0.3 0.1 0.3l0.1 0.7q0.1 0.3 0.1 0.7 0 0.2 0.2 0.4v0.1h0.2q0.4 0 1.7-1.3 1.4-1.3 2.9-3 1.6-1.8 2.9-3.3 1.4-1.7 1.8-2.2l0.5-0.2v0.5q0 0.1-0.2 0.2 0 0 0 0.1-0.1 0.3-0.2 0.5-0.1 0.2-0.2 0.5-0.3 0.6-0.6 0.9-0.3 0.4-0.3 0.5-0.2 0.2-0.9 1.4-0.7 1.2-1.6 2.5-0.8 1.3-1.5 2.5-0.6 1.1-0.8 1.6-0.6 1.3-1.1 2.6-0.5 1.3-1.2 2.5-0.4 0.5-0.6 0.5 0 0-0.5 0-2.1 0-3.4-1.7-1.2-1.7-2.1-3.3-1-2.1-1.5-4.2-0.4-2.3-0.4-4.6 0-1.2 0.2-2.3 0.1-1.2 0.1-2.5v-0.7l-0.5 0.6q-1.7 2-3.2 4.3-1.4 2.1-3 4.4-1.6 2.3-3.2 4.5-1.5 2-3.6 4.2-0.7 0.8-1.4 1.1-0.6 0.4-1.7 0.4-1.3 0-2.5-1-1-0.9-1.9-2.2-0.7-1.4-1.2-2.9-0.3-1.5-0.3-2.7 0-2.4 1.1-5.6 1.2-3.2 2.8-6.7zm2.9 14.7v0.6l0.3-0.4q1.2-1.2 3.5-3.8 2.2-2.6 4.5-5.5 2.4-2.9 4.2-5.7 1.8-2.8 2.1-4.4l0.5-2.5-0.6-1.1h-0.1q-1.3 0.3-2.6 1.2-1.4 1-2.5 2.2-1.2 1.2-2.3 2.5-1 1.3-1.7 2.4l0.4 0.2q0.2-0.2 1.1-0.6 0.9-0.5 1.5-0.6-0.6 1.2-1.3 1.9-0.4 0.6-1.6 2.6-1.1 2-2.3 4.3-1.2 2.3-2.2 4.3-0.9 1.9-0.9 2.4z"/></svg>