<svg version="1.2" xmlns="http://www.w3.org/2000/svg" viewBox="0 0 986 104" width="986" height="104"><style>.a{paint-order:stroke fill markers;stroke:#000;stroke-width: 10;stroke-linejoin: round;;fill:#fff}</style><path class="a" d="m74.7 84.1h-59.1v-68.9h19.7v59.1h39.4zm78.9 0h-69v-69h69v9.9h-49.3v19.7h39.4v9.8h-39.4v19.7h49.3zm29.5 0h-19.7v-68.9h59.1v9.8h9.9v29.6h-19.7v9.8h9.8v9.9h9.9v9.8h-29.6v-9.8h-9.8v-9.9h-9.9zm0-59.1v29.6h19.7v-9.9h9.9v-19.7zm78.8 59.1h-19.7v-68.9h19.7v29.5h9.8v-9.8h9.9v-9.9h9.8v-9.8h19.7v9.8h-9.8v9.9h-9.9v9.8h-9.8v9.9h9.8v9.8h9.9v9.9h9.8v9.8h-29.5v-9.8h-9.9v-9.9h-9.8zm78.8 0h-19.7v-49.2h9.8v-9.9h9.9v-9.8h29.5v9.8h9.9v9.9h9.8v49.2h-19.7v-19.7h-29.5zm0-49.2v19.7h29.5v-19.7h-9.8v-9.9h-9.9v9.9zm100.7 49.2h-19.7v-29.5h-9.8v-9.9h-9.9v-29.5h19.7v29.5h19.7v-29.5h19.7v29.5h-9.8v9.9h-9.9zm49.3 0h-19.7v-49.3h9.8v-9.8h9.9v-9.9h29.5v9.9h9.9v9.8h9.8v49.3h-19.7v-19.7h-29.5zm0-49.3v19.7h29.5v-19.7h-9.8v-9.8h-9.9v9.8zm84 49.3h-19.7v-19.7h19.7zm84.2 0h-49.2v-9.9h-9.9v-9.8h-9.8v-29.6h9.8v-9.8h9.9v-9.9h49.2v9.9h-39.4v9.8h-9.8v29.6h9.8v9.8h19.7v-19.7h-9.8v-9.8h29.5zm29.6 0h-19.7v-49.3h9.8v-9.8h9.9v-9.9h29.5v9.9h9.9v9.8h9.8v49.3h-19.7v-19.7h-29.5zm0-49.3v19.7h29.5v-19.7h-9.8v-9.8h-9.9v9.8zm78.8 49.3h-19.7v-69h19.7v9.9h9.9v9.8h9.8v-9.8h9.9v-9.9h19.7v69h-19.7v-39.4h-9.9v19.7h-9.8v-19.7h-9.9zm128.1 0h-69v-69h69v9.9h-49.3v19.7h39.4v9.8h-39.4v19.7h49.3zm68.9 0h-49.2v-9.8h-9.9v-9.9h19.7v9.9h29.6v-19.7h-39.4v-9.9h-9.9v-19.7h9.9v-9.8h49.2v9.8h9.9v9.9h-19.7v-9.9h-29.6v19.7h39.4v9.9h9.9v19.7h-9.9z"/></svg>