<?xml version="1.0" standalone="no"?>
<!DOCTYPE svg PUBLIC "-//W3C//DTD SVG 20010904//EN"
 "http://www.w3.org/TR/2001/REC-SVG-20010904/DTD/svg10.dtd">
<svg version="1.0" xmlns="http://www.w3.org/2000/svg"
 width="1280.000000pt" height="720.000000pt" viewBox="0 0 1280.000000 720.000000"
 preserveAspectRatio="xMidYMid meet">
<metadata>
Created by potrace 1.15, written by Peter Selinger 2001-2017
</metadata>
<g transform="translate(0.000000,720.000000) scale(0.100000,-0.100000)"
fill="#000000" stroke="none">
<path d="M4430 5071 c-233 -78 -422 -166 -491 -228 -56 -51 -75 -88 -174 -338
-123 -312 -158 -407 -189 -515 -15 -52 -29 -100 -31 -107 -3 -8 -16 -8 -52 3
-151 46 -208 49 -818 46 -678 -3 -983 9 -1370 53 -245 29 -437 70 -520 112
-16 9 -49 33 -73 55 -80 73 -163 92 -270 59 -121 -36 -206 -134 -250 -287 -91
-312 -71 -721 47 -952 59 -115 165 -182 289 -182 85 0 121 13 182 67 25 22 64
50 87 61 110 57 345 97 808 139 144 13 321 17 895 18 737 2 816 6 968 45 53
13 74 15 77 7 2 -7 14 -46 25 -87 35 -121 74 -228 193 -525 105 -265 114 -283
162 -330 53 -53 154 -111 290 -165 268 -108 423 -143 465 -105 47 43 19 105
-135 295 -143 178 -265 359 -350 522 -64 124 -155 337 -155 365 0 13 24 15
188 9 103 -3 426 -8 717 -11 1260 -13 1717 -28 2170 -70 278 -26 536 -47 835
-66 240 -17 910 -17 1110 0 639 51 980 86 1665 172 760 95 1188 158 1375 203
153 37 594 158 603 166 11 9 -555 164 -730 199 -221 45 -1107 169 -1643 231
-964 111 -1332 140 -1810 140 -419 0 -806 -22 -1390 -80 -452 -45 -731 -55
-1965 -70 -467 -6 -912 -12 -988 -13 -104 -2 -137 1 -137 11 0 25 74 201 141
332 87 173 215 367 362 550 65 80 126 163 137 186 63 129 -27 159 -250 85z"/>
</g>
</svg>
