<svg xmlns="http://www.w3.org/2000/svg" shape-rendering="crispEdges" viewBox="0 -0.5 9 9" width="9" height="9"><metadata>Generated with pixel-perfect-svg https://github.com/kagof/pixel-perfect-svg</metadata><path stroke="#000000" d="M2,0h2M5,0h2M1,1h1M4,1h1M7,1h1M0,2h1M8,2h1M0,3h1M8,3h1M0,4h1M8,4h1M1,5h1M7,5h1M2,6h1M6,6h1M3,7h1M5,7h1M4,8h1"/><path stroke="#222222" d="M2,1h2M5,1h2M1,2h1M3,2h5M1,3h7M2,4h5M3,5h3M4,6h1"/><path stroke="#3c3c3c" d="M2,2h1"/><path stroke="#1a1a1a" d="M1,4h1M7,4h1M2,5h1M6,5h1M3,6h1M5,6h1M4,7h1"/></svg>
