<svg xmlns="http://www.w3.org/2000/svg" shape-rendering="crispEdges" viewBox="0 -0.5 24 12" width="24" height="12"><metadata>Generated with pixel-perfect-svg https://github.com/kagof/pixel-perfect-svg</metadata><path stroke="#282828" d="M2,0h20M1,1h1M22,1h1M1,2h1M22,2h1M0,3h1M23,3h1M0,4h1M23,4h1M0,5h1M23,5h1M0,6h1M23,6h1M0,7h1M23,7h1M0,8h1M23,8h1M0,9h1M23,9h1M0,10h1M23,10h1M1,11h22"/><path stroke="#6b7c84" d="M2,1h2M2,2h1M21,6h1M20,7h2"/><path stroke="#4d575b" d="M4,1h18M21,2h1M1,3h2M21,3h2M1,4h2M21,4h2M1,5h2M21,5h2M1,6h2M22,6h1M1,7h19M22,7h1M1,8h1M22,8h1M1,9h1M22,9h1M1,10h1M22,10h1"/><path stroke="#394046" d="M3,2h1M7,2h1M11,2h1M15,2h1M17,2h4M3,3h1M5,3h4M10,3h2M13,3h1M15,3h1M17,3h4M3,4h1M5,4h4M10,4h2M14,4h2M17,4h4M3,5h1M5,5h4M10,5h2M13,5h1M15,5h1M17,5h4M3,6h1M7,6h2M10,6h2M13,6h1M15,6h1M19,6h2M2,8h20M2,9h20M2,10h20"/><path stroke="#ffffff" d="M4,2h3M8,2h3M12,2h3M16,2h1M4,3h1M9,3h1M12,3h1M14,3h1M16,3h1M4,4h1M9,4h1M12,4h2M16,4h1M4,5h1M9,5h1M12,5h1M14,5h1M16,5h1M4,6h3M9,6h1M12,6h1M14,6h1M16,6h3"/></svg>
