<svg xmlns="http://www.w3.org/2000/svg" shape-rendering="crispEdges" viewBox="0 -0.5 28 12" width="28" height="12"><metadata>Generated with pixel-perfect-svg https://github.com/kagof/pixel-perfect-svg</metadata><path stroke="#282828" d="M2,0h24M1,1h1M26,1h1M1,2h1M26,2h1M0,3h1M27,3h1M0,4h1M27,4h1M0,5h1M27,5h1M0,6h1M27,6h1M0,7h1M27,7h1M0,8h1M27,8h1M0,9h1M27,9h1M0,10h1M27,10h1M1,11h26"/><path stroke="#6b7c84" d="M2,1h2M2,2h1M25,6h1M24,7h2"/><path stroke="#4d575b" d="M4,1h22M25,2h1M1,3h2M25,3h2M1,4h2M26,4h1M1,5h2M25,5h2M1,6h2M26,6h1M1,7h23M26,7h1M1,8h1M26,8h1M1,9h1M26,9h1M1,10h1M26,10h1"/><path stroke="#ffffff" d="M3,2h3M7,2h1M9,2h1M11,2h1M13,2h3M17,2h3M23,2h1M3,3h1M7,3h1M9,3h1M11,3h1M13,3h1M18,3h1M22,3h3M3,4h3M7,4h3M11,4h1M13,4h3M18,4h1M21,4h1M23,4h1M25,4h1M5,5h1M7,5h1M9,5h1M11,5h1M13,5h1M18,5h1M23,5h1M3,6h3M7,6h1M9,6h1M11,6h1M13,6h1M18,6h1M23,6h1"/><path stroke="#394046" d="M6,2h1M8,2h1M10,2h1M12,2h1M16,2h1M20,2h3M24,2h1M4,3h3M8,3h1M10,3h1M12,3h1M14,3h4M19,3h3M6,4h1M10,4h1M12,4h1M16,4h2M19,4h2M22,4h1M24,4h1M3,5h2M6,5h1M8,5h1M10,5h1M12,5h1M14,5h4M19,5h4M24,5h1M6,6h1M8,6h1M10,6h1M12,6h1M14,6h4M19,6h4M24,6h1M2,8h24M2,9h24M2,10h24"/></svg>
