<svg xmlns="http://www.w3.org/2000/svg" shape-rendering="crispEdges" viewBox="0 -0.5 18 24" width="18" height="24"><metadata>Generated with pixel-perfect-svg https://github.com/kagof/pixel-perfect-svg</metadata><path stroke="#141723" d="M4,0h2M4,22h2"/><path stroke="#111723" d="M6,0h1"/><path stroke="#121723" d="M7,0h1M9,11h1"/><path stroke="#141721" d="M8,0h1M12,0h1M8,1h1M7,5h1M17,9h1M0,13h1M0,15h1M0,16h1M1,19h1"/><path stroke="#131723" d="M9,0h1M9,3h1M1,10h1"/><path stroke="#111622" d="M10,0h2M7,6h1"/><path stroke="#171a25" d="M13,0h1"/><path stroke="#161721" d="M3,1h1"/><path stroke="#1c1f2a" d="M4,1h1"/><path stroke="#5b5b5b" d="M5,1h2M4,2h1"/><path stroke="#424240" d="M7,1h1"/><path stroke="#131620" d="M9,1h1M8,2h1M11,22h2M10,23h1"/><path stroke="#bfc0be" d="M10,1h1"/><path stroke="#b8b8b6" d="M11,1h1M12,12h2"/><path stroke="#b3b5b2" d="M12,1h1"/><path stroke="#1c1c27" d="M13,1h1"/><path stroke="#161a22" d="M14,1h1"/><path stroke="#121624" d="M2,2h1"/><path stroke="#333d4e" d="M3,2h1"/><path stroke="#494846" d="M5,2h1"/><path stroke="#403f3e" d="M6,2h1"/><path stroke="#40413f" d="M7,2h1"/><path stroke="#131520" d="M9,2h1"/><path stroke="#bbc0bc" d="M10,2h1"/><path stroke="#b9bbb8" d="M11,2h1M11,3h1M6,12h1"/><path stroke="#b7bab7" d="M12,2h1M14,4h1M13,13h1"/><path stroke="#b8baba" d="M13,2h1"/><path stroke="#232636" d="M14,2h1"/><path stroke="#131820" d="M15,2h1"/><path stroke="#10141e" d="M1,3h1"/><path stroke="#252a36" d="M2,3h1"/><path stroke="#5c5c5c" d="M3,3h1M2,4h1M1,6h1M1,7h1M1,8h1M2,9h1"/><path stroke="#3d3c3b" d="M4,3h1"/><path stroke="#3e3e3c" d="M5,3h1"/><path stroke="#3f3f3e" d="M6,3h1M5,5h1M4,6h1M4,7h1M4,8h2"/><path stroke="#131821" d="M7,3h1"/><path stroke="#151825" d="M8,3h1M7,23h1"/><path stroke="#151623" d="M10,3h1"/><path stroke="#b6b9b6" d="M12,3h1M13,4h1M12,6h3M13,7h1M8,13h2M12,13h1M5,14h1M13,14h1"/><path stroke="#b8bab7" d="M13,3h1M12,4h1M11,5h2M14,5h1M11,6h1M11,7h1M14,7h1M12,8h2M11,14h2"/><path stroke="#bbbab6" d="M14,3h1"/><path stroke="#151924" d="M15,3h1M6,11h1"/><path stroke="#151923" d="M16,3h1"/><path stroke="#191d29" d="M0,4h1"/><path stroke="#141a25" d="M1,4h1"/><path stroke="#424241" d="M3,4h1"/><path stroke="#40403e" d="M4,4h1M6,4h1M6,5h1M2,6h2M6,6h1M5,7h2M6,8h1"/><path stroke="#3e3f3e" d="M5,4h1"/><path stroke="#141820" d="M7,4h1"/><path stroke="#fdfeff" d="M8,4h1"/><path stroke="#fcfcfa" d="M9,4h1"/><path stroke="#13171f" d="M10,4h1"/><path stroke="#b9bab7" d="M11,4h1M4,12h1"/><path stroke="#7b7f86" d="M15,4h1"/><path stroke="#141823" d="M16,4h1"/><path stroke="#151920" d="M17,4h1"/><path stroke="#141720" d="M0,5h1M5,11h1M4,21h1"/><path stroke="#515151" d="M1,5h1"/><path stroke="#4a4a49" d="M2,5h1"/><path stroke="#41403f" d="M3,5h1"/><path stroke="#40403f" d="M4,5h1"/><path stroke="#feffff" d="M8,5h1"/><path stroke="#b6babe" d="M9,5h1"/><path stroke="#12141f" d="M10,5h1M10,6h1M3,21h1"/><path stroke="#b6b9b8" d="M13,5h1M5,13h3M6,14h5M5,15h6M8,16h2"/><path stroke="#919497" d="M15,5h1"/><path stroke="#555b65" d="M16,5h1"/><path stroke="#171822" d="M17,5h1M16,9h1"/><path stroke="#11131e" d="M0,6h1"/><path stroke="#3f403e" d="M5,6h1M3,7h1"/><path stroke="#81888e" d="M8,6h1"/><path stroke="#606770" d="M9,6h1"/><path stroke="#b2b4b3" d="M15,6h1"/><path stroke="#5e656c" d="M16,6h1"/><path stroke="#16161f" d="M17,6h1M17,7h1"/><path stroke="#11141e" d="M0,7h1"/><path stroke="#414140" d="M2,7h1M4,9h3"/><path stroke="#111623" d="M7,7h1M0,9h1"/><path stroke="#484e5a" d="M8,7h1"/><path stroke="#4b5360" d="M9,7h1"/><path stroke="#101521" d="M10,7h1M0,10h1M8,10h1M8,11h1"/><path stroke="#b6bab6" d="M12,7h1"/><path stroke="#aeb1b0" d="M15,7h1"/><path stroke="#5b6269" d="M16,7h1"/><path stroke="#111420" d="M0,8h1"/><path stroke="#4e4e4e" d="M2,8h1"/><path stroke="#41413f" d="M3,8h1M3,9h1"/><path stroke="#3c3c3b" d="M7,8h1"/><path stroke="#141824" d="M8,8h1"/><path stroke="#0d121d" d="M9,8h1"/><path stroke="#acadad" d="M10,8h1"/><path stroke="#b9bbba" d="M11,8h1M4,14h1M6,16h1M11,16h1M7,17h1M9,17h1"/><path stroke="#b9bcb8" d="M14,8h1M7,12h1"/><path stroke="#a3a3a5" d="M15,8h1"/><path stroke="#565e65" d="M16,8h1"/><path stroke="#14151e" d="M17,8h1"/><path stroke="#242424" d="M1,9h1"/><path stroke="#414240" d="M7,9h1"/><path stroke="#0f1420" d="M8,9h1M9,10h1"/><path stroke="#0f131f" d="M9,9h1"/><path stroke="#bdbfbf" d="M10,9h1"/><path stroke="#bcbebe" d="M11,9h2M6,17h1"/><path stroke="#bdc0bd" d="M13,9h1"/><path stroke="#bec1c0" d="M14,9h1M2,13h1"/><path stroke="#898f97" d="M15,9h1"/><path stroke="#232a38" d="M2,10h1"/><path stroke="#434342" d="M3,10h1"/><path stroke="#444443" d="M4,10h3"/><path stroke="#454544" d="M7,10h1"/><path stroke="#c0c4c4" d="M10,10h1"/><path stroke="#c0c5c4" d="M11,10h1"/><path stroke="#c2c6c8" d="M12,10h1"/><path stroke="#c6caca" d="M13,10h1"/><path stroke="#78808e" d="M14,10h1"/><path stroke="#151824" d="M15,10h1"/><path stroke="#161823" d="M16,10h1M11,11h1"/><path stroke="#161924" d="M17,10h1"/><path stroke="#131523" d="M0,11h1"/><path stroke="#61646a" d="M1,11h1"/><path stroke="#343946" d="M2,11h1"/><path stroke="#171a26" d="M3,11h1"/><path stroke="#151821" d="M4,11h1"/><path stroke="#141923" d="M7,11h1"/><path stroke="#161825" d="M10,11h1"/><path stroke="#151823" d="M12,11h1"/><path stroke="#141822" d="M13,11h1"/><path stroke="#141925" d="M14,11h1M13,22h1"/><path stroke="#51575e" d="M15,11h1"/><path stroke="#424851" d="M16,11h1"/><path stroke="#161822" d="M17,11h1"/><path stroke="#131522" d="M0,12h1M13,21h1M8,23h2"/><path stroke="#62656a" d="M1,12h1"/><path stroke="#bbbcb9" d="M2,12h1"/><path stroke="#babbb8" d="M3,12h1M11,12h1"/><path stroke="#b9b9b7" d="M5,12h1"/><path stroke="#101724" d="M8,12h1"/><path stroke="#101422" d="M9,12h1"/><path stroke="#b8bbba" d="M10,12h1"/><path stroke="#b9bdb9" d="M14,12h1"/><path stroke="#5d6269" d="M15,12h1"/><path stroke="#424850" d="M16,12h1"/><path stroke="#14171f" d="M17,12h1"/><path stroke="#5f626a" d="M1,13h1M2,15h1"/><path stroke="#bbbdbc" d="M3,13h1"/><path stroke="#b8bab9" d="M4,13h1M10,13h2M11,15h1M7,16h1M10,16h1M8,17h1"/><path stroke="#bbc0be" d="M14,13h1"/><path stroke="#5a5e68" d="M15,13h1"/><path stroke="#414851" d="M16,13h1"/><path stroke="#161621" d="M17,13h1M0,14h1"/><path stroke="#5a5d65" d="M1,14h1"/><path stroke="#797a80" d="M2,14h1"/><path stroke="#bbbdbd" d="M3,14h1"/><path stroke="#b7bab9" d="M14,14h1"/><path stroke="#535861" d="M15,14h1"/><path stroke="#444c54" d="M16,14h1"/><path stroke="#161720" d="M17,14h1"/><path stroke="#565a62" d="M1,15h1"/><path stroke="#bdc1be" d="M3,15h1"/><path stroke="#bbbebc" d="M4,15h1"/><path stroke="#b9bbb9" d="M12,15h1"/><path stroke="#b9bcb9" d="M13,15h1"/><path stroke="#676a75" d="M14,15h1"/><path stroke="#50555f" d="M15,15h1M14,16h1"/><path stroke="#485057" d="M16,15h1"/><path stroke="#171721" d="M17,15h1"/><path stroke="#54575f" d="M1,16h1"/><path stroke="#575c66" d="M2,16h1M4,20h1M9,20h2"/><path stroke="#84898d" d="M3,16h1"/><path stroke="#c2c4c4" d="M4,16h1"/><path stroke="#babcbb" d="M5,16h1M10,17h1"/><path stroke="#babeba" d="M12,16h1"/><path stroke="#9ca2a5" d="M13,16h1"/><path stroke="#4f545e" d="M15,16h1M14,17h2"/><path stroke="#4a525a" d="M16,16h1"/><path stroke="#171723" d="M17,16h1"/><path stroke="#151a26" d="M0,17h1"/><path stroke="#515660" d="M1,17h1M14,18h1"/><path stroke="#565b65" d="M2,17h1M2,18h1M13,20h1"/><path stroke="#5c616b" d="M3,17h1M4,19h1"/><path stroke="#999c9f" d="M4,17h1"/><path stroke="#babfbe" d="M5,17h1M8,18h1"/><path stroke="#babcbc" d="M11,17h1"/><path stroke="#b0b5b3" d="M12,17h1"/><path stroke="#585a67" d="M13,17h1"/><path stroke="#4c565e" d="M16,17h1"/><path stroke="#171924" d="M17,17h1M17,18h1"/><path stroke="#1c1f2b" d="M0,18h1"/><path stroke="#13161f" d="M1,18h1"/><path stroke="#585d67" d="M3,18h1"/><path stroke="#666970" d="M4,18h1"/><path stroke="#8c9196" d="M5,18h1"/><path stroke="#c1c5c5" d="M6,18h1"/><path stroke="#bcc1bf" d="M7,18h1"/><path stroke="#bcc0bf" d="M9,18h1"/><path stroke="#bdc2be" d="M10,18h1"/><path stroke="#a3a9a9" d="M11,18h1"/><path stroke="#5b606a" d="M12,18h1"/><path stroke="#575a65" d="M13,18h1"/><path stroke="#4e555f" d="M15,18h1"/><path stroke="#13151d" d="M16,18h1"/><path stroke="#1a1c29" d="M2,19h1"/><path stroke="#5b5d65" d="M3,19h1"/><path stroke="#60636b" d="M5,19h1"/><path stroke="#a0a3a5" d="M6,19h1"/><path stroke="#a0a4a6" d="M7,19h1"/><path stroke="#a0a4a5" d="M8,19h1"/><path stroke="#979ca0" d="M9,19h1"/><path stroke="#8f969c" d="M10,19h1"/><path stroke="#5b6067" d="M11,19h1"/><path stroke="#585b63" d="M12,19h1"/><path stroke="#545961" d="M13,19h1"/><path stroke="#525966" d="M14,19h1"/><path stroke="#131823" d="M15,19h1"/><path stroke="#131822" d="M16,19h1"/><path stroke="#111520" d="M2,20h1"/><path stroke="#252b3b" d="M3,20h1"/><path stroke="#595e67" d="M5,20h1"/><path stroke="#5a5f68" d="M6,20h2"/><path stroke="#585e67" d="M8,20h1"/><path stroke="#555a64" d="M11,20h2"/><path stroke="#181e29" d="M14,20h1"/><path stroke="#121423" d="M15,20h1"/><path stroke="#585d66" d="M5,21h1"/><path stroke="#565d66" d="M6,21h2"/><path stroke="#575e67" d="M8,21h1"/><path stroke="#565f68" d="M9,21h1"/><path stroke="#565e67" d="M10,21h1"/><path stroke="#545c65" d="M11,21h1"/><path stroke="#525a66" d="M12,21h1"/><path stroke="#131624" d="M14,21h1"/><path stroke="#171823" d="M6,22h1"/><path stroke="#1c202a" d="M7,22h1"/><path stroke="#1b1e2a" d="M8,22h1"/><path stroke="#1a1f2a" d="M9,22h1"/><path stroke="#191e29" d="M10,22h1"/><path stroke="#181a27" d="M6,23h1"/><path stroke="#22232f" d="M11,23h1"/></svg>
