<svg xmlns="http://www.w3.org/2000/svg" shape-rendering="crispEdges" viewBox="0 -0.5 30 12" width="30" height="12"><metadata>Generated with pixel-perfect-svg https://github.com/kagof/pixel-perfect-svg</metadata><path stroke="#282828" d="M2,0h26M1,1h1M28,1h1M1,2h1M28,2h1M0,3h1M29,3h1M0,4h1M29,4h1M0,5h1M29,5h1M0,6h1M29,6h1M0,7h1M29,7h1M0,8h1M29,8h1M0,9h1M29,9h1M0,10h1M29,10h1M1,11h28"/><path stroke="#6b7c84" d="M2,1h2M2,2h1M27,6h1M26,7h2"/><path stroke="#4d575b" d="M4,1h24M27,2h1M1,3h2M27,3h2M1,4h2M27,4h2M1,5h2M27,5h2M1,6h2M28,6h1M1,7h25M28,7h1M1,8h1M28,8h1M1,9h1M28,9h1M1,10h1M28,10h1"/><path stroke="#394046" d="M3,2h1M7,2h1M11,2h1M15,2h1M19,2h1M23,2h4M3,3h1M5,3h3M9,3h1M11,3h1M13,3h1M15,3h1M17,3h3M21,3h6M3,4h1M7,4h1M11,4h1M15,4h1M17,4h3M23,4h4M3,5h3M7,5h1M9,5h3M13,5h1M15,5h1M17,5h3M21,5h6M3,6h1M7,6h1M9,6h3M13,6h1M15,6h1M19,6h1M23,6h4M2,8h26M2,9h26M2,10h26"/><path stroke="#ffffff" d="M4,2h3M8,2h3M12,2h3M16,2h3M20,2h3M4,3h1M8,3h1M10,3h1M12,3h1M14,3h1M16,3h1M20,3h1M4,4h3M8,4h3M12,4h3M16,4h1M20,4h3M6,5h1M8,5h1M12,5h1M14,5h1M16,5h1M20,5h1M4,6h3M8,6h1M12,6h1M14,6h1M16,6h3M20,6h3"/></svg>
