<svg xmlns="http://www.w3.org/2000/svg" shape-rendering="crispEdges" viewBox="0 -0.5 41 25" width="41" height="25"><metadata>Generated with pixel-perfect-svg https://github.com/kagof/pixel-perfect-svg</metadata><path stroke="#282828" d="M16,0h9M15,1h1M25,1h1M15,2h1M25,2h1M14,3h1M26,3h1M14,4h1M26,4h1M14,5h1M26,5h1M14,6h1M26,6h1M14,7h1M26,7h1M14,8h1M26,8h1M14,9h1M26,9h1M14,10h1M26,10h1M15,11h11M2,13h9M16,13h9M30,13h9M1,14h1M11,14h1M15,14h1M25,14h1M29,14h1M39,14h1M1,15h1M11,15h1M15,15h1M25,15h1M29,15h1M39,15h1M0,16h1M12,16h1M14,16h1M26,16h1M28,16h1M40,16h1M0,17h1M12,17h1M14,17h1M26,17h1M28,17h1M40,17h1M0,18h1M12,18h1M14,18h1M26,18h1M28,18h1M40,18h1M0,19h1M12,19h1M14,19h1M26,19h1M28,19h1M40,19h1M0,20h1M12,20h1M14,20h1M26,20h1M28,20h1M40,20h1M0,21h1M12,21h1M14,21h1M26,21h1M28,21h1M40,21h1M0,22h1M12,22h1M14,22h1M26,22h1M28,22h1M40,22h1M0,23h1M12,23h1M14,23h1M26,23h1M28,23h1M40,23h1M1,24h11M15,24h11M29,24h11"/><path stroke="#6b7c84" d="M16,1h2M16,2h1M19,5h1M21,5h1M20,6h1M24,6h1M23,7h2M2,14h2M16,14h2M30,14h2M2,15h1M16,15h1M30,15h1M35,15h1M10,19h1M24,19h1M35,19h1M38,19h1M9,20h2M23,20h2M37,20h2"/><path stroke="#4d575b" d="M18,1h7M24,2h1M15,3h2M24,3h2M15,4h2M24,4h2M15,5h2M24,5h2M15,6h2M25,6h1M15,7h8M25,7h1M15,8h1M25,8h1M15,9h1M25,9h1M15,10h1M25,10h1M4,14h7M18,14h7M32,14h7M10,15h1M24,15h1M38,15h1M1,16h2M10,16h2M15,16h2M24,16h2M29,16h2M38,16h2M1,17h2M10,17h2M15,17h2M24,17h2M29,17h2M38,17h2M1,18h2M10,18h2M15,18h2M24,18h2M29,18h2M38,18h2M1,19h2M11,19h1M15,19h2M25,19h1M29,19h2M39,19h1M1,20h8M11,20h1M15,20h8M25,20h1M29,20h8M39,20h1M1,21h1M11,21h1M15,21h1M25,21h1M29,21h1M39,21h1M1,22h1M11,22h1M15,22h1M25,22h1M29,22h1M39,22h1M1,23h1M11,23h1M15,23h1M25,23h1M29,23h1M39,23h1"/><path stroke="#394046" d="M17,2h1M19,2h1M21,2h1M23,2h1M17,3h1M19,3h1M21,3h1M23,3h1M17,4h1M19,4h1M21,4h1M23,4h1M17,5h1M23,5h1M17,6h1M23,6h1M16,8h9M16,9h9M16,10h9M3,15h2M8,15h2M17,15h2M22,15h2M31,15h2M36,15h2M3,16h2M6,16h1M8,16h2M17,16h2M20,16h4M31,16h2M34,16h1M36,16h2M3,17h2M8,17h2M17,17h2M22,17h2M31,17h2M34,17h1M36,17h2M3,18h2M6,18h1M8,18h2M17,18h4M22,18h2M31,18h2M34,18h1M36,18h2M3,19h2M6,19h1M8,19h2M17,19h2M22,19h2M31,19h2M36,19h2M2,21h9M16,21h9M30,21h9M2,22h9M16,22h9M30,22h9M2,23h9M16,23h9M30,23h9"/><path stroke="#ffffff" d="M18,2h1M20,2h1M22,2h1M18,3h1M20,3h1M22,3h1M18,4h1M20,4h1M22,4h1M18,5h1M20,5h1M22,5h1M18,6h2M21,6h2M5,15h3M19,15h3M33,15h2M5,16h1M7,16h1M19,16h1M33,16h1M35,16h1M5,17h3M19,17h3M33,17h1M35,17h1M5,18h1M7,18h1M21,18h1M33,18h1M35,18h1M5,19h1M7,19h1M19,19h3M33,19h2"/></svg>
